<svg xmlns="http://www.w3.org/2000/svg" width="60.553" height="70" viewBox="0 0 60.553 70">
  <g id="winner-cup-7824" transform="translate(-17.065)">
    <path id="Path_64496" data-name="Path 64496" d="M74.831,5.917H65.441V5.656a4.24,4.24,0,0,1,2.391-4.178A.777.777,0,0,0,67.494,0H47.342V0H27.189a.778.778,0,0,0-.338,1.479,4.239,4.239,0,0,1,2.391,4.178v.261H19.851A2.789,2.789,0,0,0,17.065,8.7V20.012a15.457,15.457,0,0,0,14.85,15.523,18.248,18.248,0,0,0,10.391,7.936,3.286,3.286,0,0,0,2.341,5.592l.011,8.78H41.895a4.016,4.016,0,0,0-3.856,2.846l-.407,1.318H36.316a4.969,4.969,0,0,0-4.964,4.964v2.252A.778.778,0,0,0,32.13,70H47.342v0H62.553a.778.778,0,0,0,.778-.778V66.97a4.969,4.969,0,0,0-4.964-4.964H57.051l-.407-1.318a4.016,4.016,0,0,0-3.856-2.846H50.025l.011-8.78a3.286,3.286,0,0,0,2.341-5.592,18.245,18.245,0,0,0,10.391-7.936,15.457,15.457,0,0,0,14.85-15.523V8.7A2.79,2.79,0,0,0,74.831,5.917Zm-52.2,14.094V11.489h6.606V26.1a17.918,17.918,0,0,0,.331,3.408A9.942,9.942,0,0,1,22.636,20.011Zm33.127-.854-3.508,3.419a.639.639,0,0,0-.184.565L52.9,27.97a.638.638,0,0,1-.926.673l-4.335-2.279a.637.637,0,0,0-.594,0l-4.335,2.279a.638.638,0,0,1-.926-.673l.828-4.828a.64.64,0,0,0-.184-.565L38.92,19.157a.638.638,0,0,1,.354-1.089l4.847-.7a.639.639,0,0,0,.481-.349l2.168-4.392a.638.638,0,0,1,1.145,0l2.168,4.392a.64.64,0,0,0,.481.349l4.847.7A.638.638,0,0,1,55.763,19.157Zm16.283.854A9.944,9.944,0,0,1,65.108,29.5,17.919,17.919,0,0,0,65.44,26.1V11.489h6.606v8.522Z" transform="translate(0)" fill="#65bd9c"/>
  </g>
</svg>
