<svg id="Group_4194" data-name="Group 4194" xmlns="http://www.w3.org/2000/svg" xmlns:xlink="http://www.w3.org/1999/xlink" width="70.121" height="70" viewBox="0 0 70.121 70">
  <defs>
    <clipPath id="clip-path">
      <rect id="Rectangle_5676" data-name="Rectangle 5676" width="70.121" height="70" fill="#65bd9c"/>
    </clipPath>
  </defs>
  <g id="Group_4193" data-name="Group 4193" clip-path="url(#clip-path)">
    <path id="Path_64497" data-name="Path 64497" d="M84.027.027A13.925,13.925,0,0,1,90.9,3.571,12.641,12.641,0,0,1,97.683.027c.929.062,1.953-.084,2.868,0,6.25.577,11.708,6.014,12.66,12.135,1.291,8.3-3.587,12.558-9.534,17.029-4.286,3.221-8.8,6.142-12.774,9.771-1.886-1.393-3.643-2.988-5.522-4.414C77.681,28.7,66.612,23.693,68.5,12.025a14.791,14.791,0,0,1,12.66-12ZM92.9,12.464h-4.1v4.1h-4.1v4.1h4.1v4.1h4.1v-4.1H97v-4.1H92.9Z" transform="translate(-55.814 0)" fill="#65bd9c"/>
    <path id="Path_64498" data-name="Path 64498" d="M.081,109.793c.081-1.533.456-5.264,1.367-6.491,1.972-2.658,3.7,2.242,4.132,3.653,2.675,8.762.144,18.511,7.82,24.837,2.814,2.319,6.136,4.305,9.034,6.546.361.057,2.111-2.678,2.488-3.079l-.211-.3c-2.911-2.354-6.65-4.369-9.4-6.856-2.916-2.637-4.386-7.381,1.455-6.376,5.554.956,16.226,7.337,16.226,13.828V153.8H20.7c-.122-2.6-1.68-4.944-3.281-6.9C12.933,141.427,2.077,134.1.8,127.183a72.057,72.057,0,0,1-.718-9.326c-.082-2.536-.133-5.545,0-8.063" transform="translate(0 -83.8)" fill="#65bd9c"/>
    <path id="Path_64499" data-name="Path 64499" d="M215.355,153.821h-12.29V135.3c0-1.694,1.623-4.722,2.735-6.01,2.449-2.835,11.478-8,15.206-7.708,1.577.121,2.439.854,2.254,2.5-.465,4.136-8.989,8.265-11.912,10.9l-.213.3c.378.4,2.127,3.136,2.488,3.079,2.736-2.086,5.71-3.954,8.409-6.078a15.943,15.943,0,0,0,6.158-9.963c.628-4.553.947-15.629,3.965-18.992,2.339-2.607,3.321,2.074,3.53,3.7a83.577,83.577,0,0,1-.408,19.92c-1.293,7.53-12.651,14.643-17.244,20.735a11.186,11.186,0,0,0-2.677,6.136" transform="translate(-165.976 -83.821)" fill="#65bd9c"/>
  </g>
</svg>
