<svg id="Group_4192" data-name="Group 4192" xmlns="http://www.w3.org/2000/svg" xmlns:xlink="http://www.w3.org/1999/xlink" width="82.746" height="70" viewBox="0 0 82.746 70">
  <defs>
    <clipPath id="clip-path">
      <rect id="Rectangle_5675" data-name="Rectangle 5675" width="82.746" height="70" fill="#65bd9c"/>
    </clipPath>
  </defs>
  <g id="Group_4191" data-name="Group 4191" clip-path="url(#clip-path)">
    <path id="Path_64491" data-name="Path 64491" d="M0,113.77H18.263A20.914,20.914,0,0,1,17.212,117a26.01,26.01,0,0,0,1.056,17.5L0,134.739v-.484l2.922-9.919c-.819-3.383-1.8-6.777-2.922-10.081Z" transform="translate(0 -89.254)" fill="#65bd9c"/>
    <path id="Path_64492" data-name="Path 64492" d="M317.454,113.77v.484c-1.182,3.245-2.137,6.6-3.076,9.926.857,3.4,1.9,6.771,3.076,10.074v.484l-18.268-.245a26.034,26.034,0,0,0,1.056-17.5,20.919,20.919,0,0,1-1.051-3.226Z" transform="translate(-234.708 -89.254)" fill="#65bd9c"/>
    <path id="Path_64493" data-name="Path 64493" d="M115.675,68.036c18.594-1.566,29.7,19.737,17.482,33.739-9.818,11.253-28.32,8.216-34.124-5.452-5.277-12.428,3.041-27.142,16.642-28.287M125.83,80.258,114.656,91.373l-4.871-4.824-3.449,3.295,8.32,8.3,14.623-14.595Z" transform="translate(-76.435 -53.312)" fill="#65bd9c"/>
    <path id="Path_64494" data-name="Path 64494" d="M56.944,20c-.07-.281.117-.322.241-.485.916-1.194,2.486-2.144,3.285-3.5L65.356,6.7l10.98-1.945L85.966,0l9.767,4.755,10.951,1.893,5.074,9.7c.846,1.134,2.289,2.08,3.126,3.171.125.163.312.2.241.485h-8.97C96.316,6.717,75.764,6.727,65.914,20Z" transform="translate(-44.662)" fill="#65bd9c"/>
    <path id="Path_64495" data-name="Path 64495" d="M115.125,232.039c.07.281-.117.322-.241.485-.837,1.091-2.279,2.037-3.126,3.171l-5.079,9.69-10.947,1.9-9.63,4.755-9.767-4.755-10.981-1.944-4.949-9.416c-.777-1.3-2.326-2.233-3.22-3.4-.125-.163-.312-.2-.241-.485h8.97c9.849,13.27,30.4,13.286,40.242,0Z" transform="translate(-44.662 -182.038)" fill="#65bd9c"/>
  </g>
</svg>
