<svg id="Group_4217" data-name="Group 4217" xmlns="http://www.w3.org/2000/svg" xmlns:xlink="http://www.w3.org/1999/xlink" width="80.646" height="51.894" viewBox="0 0 80.646 51.894">
  <defs>
    <clipPath id="clip-path">
      <rect id="Rectangle_5689" data-name="Rectangle 5689" width="80.646" height="51.894" fill="#fff"/>
    </clipPath>
  </defs>
  <g id="Group_4216" data-name="Group 4216" clip-path="url(#clip-path)">
    <path id="Path_64543" data-name="Path 64543" d="M77.724,21.8a40.2,40.2,0,0,0-16.9-16.981A44.827,44.827,0,0,0,37.183.089,40.754,40.754,0,0,0,2.9,21.8C2.793,22,.212,26.812.01,28.68c-.126,1.169.959,2.979,2.15,4.761l.031.046C9.612,44.594,23.314,51.468,38.841,51.875c.5.013.989.019,1.482.019,15.325,0,29.1-6.26,37.051-16.912.031-.042,3.171-4.347,3.267-5.71.125-1.77-2.887-7.417-2.918-7.474M68.053,37.506A3.041,3.041,0,0,0,68.4,34.94a1.383,1.383,0,0,0-1.09-.742,1.94,1.94,0,0,0-1.661.551,1.894,1.894,0,0,0-.374.738l-.019-.057a2.922,2.922,0,0,1-.161-.624,15.378,15.378,0,0,1,.024-1.762c.079-1.752.1-2.94-.265-3.457a1.418,1.418,0,0,0-1.646-.564,2.193,2.193,0,0,0-1.45,2.03v2.56c-1.192-.046-3.187-.123-3.97.812a1.473,1.473,0,0,0-.276,1.319c.318,1.461,1.741,1.342,2.886,1.246a3.075,3.075,0,0,1,1.865.169,5.888,5.888,0,0,1,.5.89,8.215,8.215,0,0,0,.469.859c.1.147.3.391.544.7a17.1,17.1,0,0,1,1.539,2.126c-.45.25-.9.507-1.346.764-1.2.688-2.439,1.4-3.714,1.973a21.316,21.316,0,0,1-3.669,1.381c-.028-.167.274-.607.446-.856a2.578,2.578,0,0,0,.465-.874,1.7,1.7,0,0,0-1.216-2.175,1.783,1.783,0,0,0-2,1.178l-.1-.057c-.921-.525-2.463-1.405-3.525-1.066a1.36,1.36,0,0,0-.831.749c-.736,1.584.649,2.256,1.763,2.8.794.385,1.551.752,1.786,1.364a55.769,55.769,0,0,1-17.6,1.369c0-.393.328-.688.813-1.1.611-.512,1.535-1.285.7-2.534a1.49,1.49,0,0,0-1.164-.711,2.4,2.4,0,0,0-1.646.668c-.584-.737-1.956-2.262-3.185-2.18a1.511,1.511,0,0,0-1.26.925c-.594,1.15.329,1.945,1,2.526a4.343,4.343,0,0,1,.772.778,10.412,10.412,0,0,1,.552,1.172,40.175,40.175,0,0,1-21.019-9.091c-.122-.22,0-.568.186-1.029.047-.117.092-.23.13-.337a10.822,10.822,0,0,1,3.356-4.65,9.667,9.667,0,0,1,.958-.657c1.22-.773,2.737-1.734,2.288-3.258a1.26,1.26,0,0,0-.849-.929c-1.216-.362-3.112,1.126-4.791,2.551l-.144.122-.056-.1c-.443-.8-1.184-2.134-2.23-2.286a1.551,1.551,0,0,0-1.331.511c-1.016.995-.194,2.182.467,3.137a4.742,4.742,0,0,1,.747,1.339c-.139.253-.29.5-.449.765A8.014,8.014,0,0,0,8.58,36.146c-.065-.063-.143-.142-.236-.241l-.07-.074a37.269,37.269,0,0,1-4.615-6.342,58.864,58.864,0,0,1,19.6-12.548c.143-.055.316-.124.508-.2a19.03,19.03,0,0,1,2.464-.863c-.111.2-.253.43-.4.666a9.461,9.461,0,0,0-.734,1.321,18.134,18.134,0,0,0-1.269,5.583c-.044,1.317,0,3.151.934,3.854a1.485,1.485,0,0,0,1.417.178c1.343-.429,1.181-1.921,1.064-3.012a7.073,7.073,0,0,1-.065-.98,13.678,13.678,0,0,1,2.271-6.658,15.565,15.565,0,0,1,1.768-2.136c.763-.456,5.188-.945,6.852-1.03,2.686-.137,8.415,0,10.262.747.791.321,2.442,2.525,2.967,3.5A12.885,12.885,0,0,1,38.99,36.875a9.682,9.682,0,0,1-1.223-.245c-1.484-.351-3.167-.751-3.918.044a1.646,1.646,0,0,0-.208,1.679c.416,1.4,5.063,1.857,5.11,1.861a16.211,16.211,0,0,0,15.13-24.456c7.7,2.3,15.45,6.9,23.049,13.67a31.213,31.213,0,0,1-4.5,6.318,46.267,46.267,0,0,1-4.411,4.008,1.616,1.616,0,0,1-.41-.779,3.517,3.517,0,0,1,.44-1.469M32.627,10.928C21.479,12.691,14.58,17.23,6.079,23.006A37.03,37.03,0,0,1,30.794,4.327a44.962,44.962,0,0,1,9.442-.987A42.33,42.33,0,0,1,57.368,6.8,37.258,37.258,0,0,1,74.5,22.983C61.386,12.83,46.944,8.666,32.627,10.928" transform="translate(0 -0.001)" fill="#fff"/>
    <path id="Path_64544" data-name="Path 64544" d="M124.312,74.131a10.288,10.288,0,0,0,2.326-.277c5.413-1.255,7.14-6.046,6.454-9.968a8.376,8.376,0,0,0-9.529-7.131,7.991,7.991,0,0,0-6.89,5.09,9.67,9.67,0,0,0,1.654,9.593,7.7,7.7,0,0,0,5.986,2.693M119.65,63.409a4.786,4.786,0,0,1,4.192-3.323,5.2,5.2,0,0,1,5.914,3.963,5.092,5.092,0,0,1-3.064,6.257,4.962,4.962,0,0,1-5.475-.743,6.21,6.21,0,0,1-1.568-6.154" transform="translate(-84.601 -41.316)" fill="#fff"/>
    <path id="Path_64545" data-name="Path 64545" d="M89.739,107.055a6.013,6.013,0,0,0-8.643,8.358,5.767,5.767,0,0,0,4.162,1.878,5.649,5.649,0,0,0,1.392-.178,6.655,6.655,0,0,0,4.628-4.512,5.56,5.56,0,0,0-1.54-5.547m-3.154,6.563a2.441,2.441,0,0,1-2.77-.256,3.069,3.069,0,0,1-.84-3.03,2.377,2.377,0,0,1,2.041-1.711,2.514,2.514,0,0,1,2.906,1.891,2.484,2.484,0,0,1-1.336,3.106" transform="translate(-57.867 -76.675)" fill="#fff"/>
  </g>
</svg>
