<svg id="Group_4207" data-name="Group 4207" xmlns="http://www.w3.org/2000/svg" xmlns:xlink="http://www.w3.org/1999/xlink" width="65.916" height="62.668" viewBox="0 0 65.916 62.668">
  <defs>
    <clipPath id="clip-path">
      <rect id="Rectangle_5685" data-name="Rectangle 5685" width="65.916" height="62.668" fill="#fff"/>
    </clipPath>
  </defs>
  <g id="Group_4206" data-name="Group 4206" clip-path="url(#clip-path)">
    <path id="Path_64514" data-name="Path 64514" d="M31.551.121C59.115-2.243,76.788,30.4,58.334,51.6,44.918,67.014,22.429,65.927,9.267,50.84c-1.391-1.595-2.8-3.039-4.2-4.608-6.815-7.645-6.7-21.961,0-29.641,1.688-1.934,3.433-3.874,5.153-5.8A33.125,33.125,0,0,1,31.551.121M10.121,47.3c-.171.146,1.509,2.241,1.712,2.474C31.522,72.457,69.4,54.3,62.456,24.71,57.416,3.242,30.16-4.325,14.087,10.575A29.243,29.243,0,0,0,10.123,15.2c-.221.569,1.669.213,1.929.64l-1.716.913L9.049,24.325l1.608-3a12.506,12.506,0,0,1,0,20.178l-1.608-3,1.264,7.216L12.481,47.2ZM8.831,17.454C8.605,17.2,6.687,19.237,6.474,19.5,1.017,26.185,1.365,40.158,8.829,45.37L7.412,37.094l1.214-.644c-.471-3.369-.794-6.9.205-10.19-.517.03-1.2.075-1.419-.53Z" transform="translate(0 0)" fill="#fff"/>
    <path id="Path_64515" data-name="Path 64515" d="M52.216,59.835a8.686,8.686,0,0,0,2.254-.22c.26-.062.653-.04.32-.421-.247-.283-2.027-1.123-2.51-1.458-.187-.129-.4.036-.28-.476.938-.184,2.533-1,3.439-.542,1,1.685,1.7,3.523,2.782,5.163,9.012,13.625,28.952,10.578,38.44-.871,13.719-16.556,3.921-42.467-17.522-45.172-10.214-1.288-17.7,2.695-22.532,11.56-.443.814-.641,2.54-1.718,2.57-.426.012-2.891-.536-2.886-.95l2.783-1.933c0-.513-2.137-.277-2.572-.323a1.338,1.338,0,0,1,.035-.5,29.135,29.135,0,0,1,2.534-3.049c15.27-15.3,42.967-7.77,48,13.428,6.423,27.031-26.278,45.628-46.607,27.924-.463-.4-4.437-4.313-3.966-4.729" transform="translate(-40.806 -11.886)" fill="#fff"/>
    <path id="Path_64516" data-name="Path 64516" d="M128.428,30.79c-.289-.3-1.7.753-2.044.856-.289.088-.39-.01-.3-.3l3.635-8.068,3.435,8.057-.315.315-2.044-.856v5.476c0,1.209-2.362,1-2.362.215Z" transform="translate(-98.981 -18.276)" fill="#fff"/>
    <path id="Path_64517" data-name="Path 64517" d="M202.045,50.278l-3.223,8.373c-.647-.183-.716-2.3-1.389-2.145-.478.108-3.027,3.411-3.766,3.751-1.2.552-2.152-.41-1.6-1.6.341-.74,3.643-3.288,3.751-3.767.133-.588-1.45-.761-1.843-.941-.252-.114-.388.1-.3-.448Z" transform="translate(-150.694 -39.481)" fill="#fff"/>
    <path id="Path_64518" data-name="Path 64518" d="M198.175,202.086c.188-.636.35-1.291.55-1.925.06-.191.047-.612.313-.332l4.078,7.84-8.589-2.363,1.931-1.6c-.075-.346-3.614-2.615-4.089-3.428a1.137,1.137,0,0,1,.8-1.791c.928-.083,3.981,3.086,5.011,3.6" transform="translate(-150.906 -155.857)" fill="#fff"/>
    <path id="Path_64519" data-name="Path 64519" d="M127.577,211.541l2.471-.858.1.317-3.54,8.053-3.54-7.838c-.047-.32-.026-.38.3-.3.651.148,1.292.789,2.055.631V205.85c0-.7,2.147-.7,2.147,0Z" transform="translate(-96.626 -161.232)" fill="#fff"/>
    <path id="Path_64520" data-name="Path 64520" d="M225.912,134.48a8.715,8.715,0,0,0-.754-2.148c-.08-.257-.232-.3.218-.217l8.052,3.226c-.019.306-.331.329-.53.433a59.353,59.353,0,0,1-7.524,3.216c-.156.023-.369.046-.32-.107l.857-2.256h-5.906c-.738,0-.474-2.147.215-2.147Z" transform="translate(-172.412 -103.712)" fill="#fff"/>
  </g>
</svg>
