<svg id="Group_4219" data-name="Group 4219" xmlns="http://www.w3.org/2000/svg" xmlns:xlink="http://www.w3.org/1999/xlink" width="96.775" height="51.894" viewBox="0 0 96.775 51.894">
  <defs>
    <clipPath id="clip-path">
      <rect id="Rectangle_5690" data-name="Rectangle 5690" width="96.775" height="51.894" fill="#fff"/>
    </clipPath>
  </defs>
  <g id="Group_4218" data-name="Group 4218" clip-path="url(#clip-path)">
    <path id="Path_64546" data-name="Path 64546" d="M96.573,38.242A38.058,38.058,0,0,0,63.86,3a17.264,17.264,0,0,0-1.891-.129,13.872,13.872,0,0,1-1.759-.126,12.25,12.25,0,0,1-2.3-.845A18.915,18.915,0,0,0,55.8,1.072,25.989,25.989,0,0,0,23.48,33.207a20.213,20.213,0,0,0,.695,1.927c.087.218.172.431.254.643A28.079,28.079,0,0,1,11.407,19.764c-.767-2.53-.956-4.055-.822-4.374a4.588,4.588,0,0,1,.49-.473,5.245,5.245,0,0,0,.656-.649,6.39,6.39,0,0,0-.286-8.345,6.481,6.481,0,0,0-8.39-1.161C-.572,6.98-.114,11.649.225,15.091a38.537,38.537,0,0,0,32.16,34c.84.127,1.74.174,2.611.22a23.57,23.57,0,0,1,2.536.221,7.664,7.664,0,0,1,1.522.561,12.177,12.177,0,0,0,1.389.548,28.53,28.53,0,0,0,8.126,1.249,25.861,25.861,0,0,0,23.692-15.8,26.094,26.094,0,0,0,.319-19.627A28.281,28.281,0,0,1,84.232,29.3c.9,2.024,2.354,6.553,1.979,7.428a4.19,4.19,0,0,1-.524.585,6.276,6.276,0,0,0-.635,8.643,7.083,7.083,0,0,0,7,2.2,6.513,6.513,0,0,0,4.712-5.286l.013-4.165ZM8.924,11.063a2.937,2.937,0,0,1-.9,1.236,4.443,4.443,0,0,0-1.643,3.683c.338,9.487,8.966,19.749,16.766,23.817.533.279,1.365.6,2.245.937a16.2,16.2,0,0,1,2.5,1.092,9.248,9.248,0,0,1,1.148,1.338,13.351,13.351,0,0,0,.926,1.127c.032.033.065.065.1.1A34.074,34.074,0,0,1,4.2,13.691c-.186-3.129.069-4.261.316-4.66a2.3,2.3,0,0,1,2.008-1.19,2.544,2.544,0,0,1,1,.207,2.472,2.472,0,0,1,1.4,3.016M62.48,42.669a21.509,21.509,0,0,1-18.146,4.719,21.722,21.722,0,0,1-15-31.991A21.383,21.383,0,0,1,46.179,4.2a21.737,21.737,0,0,1,22.337,13.37,21.55,21.55,0,0,1-6.036,25.1m26.377-2.862a4.788,4.788,0,0,0,1.549-3.877c-.538-9.346-8.76-19.24-16.4-23.406a21.53,21.53,0,0,0-2.36-1.025,14.732,14.732,0,0,1-2.379-1.073,9.5,9.5,0,0,1-1.431-1.614c-.3-.385-.585-.751-.841-1.036A34.214,34.214,0,0,1,91.782,33.17a32.639,32.639,0,0,1,.834,8.879A2.41,2.41,0,0,1,87.8,41.91a2.937,2.937,0,0,1,1.056-2.1" transform="translate(0 0)" fill="#fff"/>
  </g>
</svg>
