<svg id="Group_4180" data-name="Group 4180" xmlns="http://www.w3.org/2000/svg" xmlns:xlink="http://www.w3.org/1999/xlink" width="74.532" height="55.952" viewBox="0 0 74.532 55.952">
  <defs>
    <clipPath id="clip-path">
      <rect id="Rectangle_5673" data-name="Rectangle 5673" width="74.532" height="55.952" fill="#fff"/>
    </clipPath>
  </defs>
  <g id="Group_4176" data-name="Group 4176" clip-path="url(#clip-path)">
    <path id="Path_64485" data-name="Path 64485" d="M51.728,90.721l-3.708,3.62c-15.657-4.4-33.1,1.481-42.506,14.713a39.335,39.335,0,0,0,63.463.13c.065-.144-.007-.244-.061-.37a27.879,27.879,0,0,0-2.138-2.64A43.074,43.074,0,0,0,52.554,95.9c1.049-.787,2.183-2.539,3.2-3.221.187-.125.181-.144.415-.085a26.965,26.965,0,0,1,4.361,2.4,43.7,43.7,0,0,1,14,14.063A43.928,43.928,0,0,1,0,109.15c-.116-.525,3.66-5.236,4.282-5.936A44.146,44.146,0,0,1,51.728,90.721" transform="translate(0 -73.79)" fill="#fff"/>
    <path id="Path_64486" data-name="Path 64486" d="M158.631,127.9c-.933-1.933-2.019.053-2.613,1.1l.8.791-.735.695a9.319,9.319,0,1,0,3.233,2.921l.712-.736a5.713,5.713,0,0,1,.863,1.432c.079.137-.035.268.283.212a9.542,9.542,0,0,0,1.742-1.06c.486-.678.018-1.847-.876-1.711-.439.067-.949.71-1.436.549l2.548-2.711c.19,0,1.105,1.428,1.261,1.7,5.258,9-.158,20.738-10.492,22.288a14.833,14.833,0,0,1-16.813-16.648c1.336-10.869,14.062-16.776,23-10.216Zm-5.922.494c-.1-.9.451-2.838-.931-2.91-1.489-.078-.96,1.99-1.044,2.91Zm-4.487-2.434c-.917.272-.559,2.256-.2,2.764.165.234,1.709-.131,1.9-.245.223-.136.128-.237.095-.419-.169-.918-.572-2.461-1.79-2.1m6.249,0c-.711.211-.788,1.725-1.1,2.34l1.864.577c.682-.89,1.058-3.459-.768-2.917M145.64,130.2l1.785-1.065c-.444-.829-1.21-2.779-2.366-1.733-1.009.912.4,1.833.581,2.8m-.5.655c.134-.192-1.347-1.7-1.6-1.778a1.05,1.05,0,0,0-1.359,1.03c.044.661,1.145,1.4,1.571,1.9Zm-1.817,1.662c-.724-.265-2.319-1.647-2.868-.508-.62,1.286,1.024,1.942,1.965,2.312Zm-1.142,2.454c-.885.005-2.311-1.035-2.942-.067-.916,1.405,1.489,1.946,2.448,2.039Zm19.57,1.972c.977-.027,3.541-.8,2.377-2.133-.71-.812-2,.175-2.871.16Zm-20.226.656c-.75.051-2.634-.3-2.8.749-.261,1.662,1.689,1.4,2.8,1.391Zm22.978,1.768a1.528,1.528,0,0,0,.21-1.019c-.164-1.05-2.041-.7-2.8-.749v2.139c.683-.033,2.089.161,2.589-.372M141.69,140.4c-.849.085-3.143.519-2.551,1.806.543,1.181,1.981.223,2.875.163Zm19.739,1.968c.969.006,1.966.993,2.7,0,1.01-1.36-1.426-1.886-2.378-1.969Zm-18.929.675c-.975,0-3.086,1.532-1.786,2.531.825.634,1.8-.642,2.621-.736Zm17.608,1.8c.793.105,2.092,1.563,2.783.565.852-1.231-.905-2.1-1.863-2.384Zm-16.34.508c-.58.573-2.213,1.717-1.335,2.616.967.989,2.082-.615,2.7-1.253Zm17.282,2.577c.806-.846-.812-2.034-1.376-2.577l-1.363,1.244c.5.79,1.769,2.352,2.739,1.333m-13.6.044-1.795-.815c-.24.808-1.4,1.807-.75,2.618,1.054,1.325,2.364-.8,2.545-1.8m10.346-.815-1.795.815c.329.976.99,2.687,2.3,2.053,1.138-.549-.244-2.144-.508-2.868m-7.715,1.636-1.971-.494c-1.533,3.751,1.526,4.415,1.971.494m3.289,0c.445,3.92,3.5,3.257,1.971-.494Zm-.657.163h-1.975c-.629,3.83,2.6,3.827,1.975,0" transform="translate(-114.464 -103.405)" fill="#fff"/>
    <path id="Path_64487" data-name="Path 64487" d="M222.994,70.017c.175-.031,1.669,1.293,1.467,1.631L205.853,90.392c-.14.946-.869.995-1.322,1.79a3.367,3.367,0,0,0,1.089,4.545,4.923,4.923,0,1,1-1.884-7.484Z" transform="translate(-164.418 -58.503)" fill="#fff"/>
    <path id="Path_64488" data-name="Path 64488" d="M372.531,11.279,364.7,3.238c-.691-1.693,1.683-4.115,3.411-2.918A54.868,54.868,0,0,1,373.3,5.5c.421.447,2.727,2.837,2.831,3.088a1.444,1.444,0,0,1,0,1.232,14.644,14.644,0,0,1-1.593,1.695,1.852,1.852,0,0,1-2.007-.231" transform="translate(-304.629 0.001)" fill="#fff"/>
    <path id="Path_64489" data-name="Path 64489" d="M370.925,180.947c2.151,1.425,3.676,3.567,5.328,5.509a33.56,33.56,0,0,1-5.327,5.509,9.3,9.3,0,0,1,0-11.018" transform="translate(-308.42 -151.192)" fill="#fff"/>
    <path id="Path_64490" data-name="Path 64490" d="M356.8,30.875l5.923,6.246c-1.171.169-3.146,1.98-4.193,1.984-.707,0-1.643-1.139-2.14-1.651-.274-.283-1.627-1.7-1.733-1.884a.818.818,0,0,1-.17-.5,28.924,28.924,0,0,1,1.848-3.925c.14-.185.173-.336.465-.271" transform="translate(-296.195 -25.785)" fill="#fff"/>
  </g>
</svg>
