<svg id="Group_4213" data-name="Group 4213" xmlns="http://www.w3.org/2000/svg" xmlns:xlink="http://www.w3.org/1999/xlink" width="74.532" height="74.277" viewBox="0 0 74.532 74.277">
  <defs>
    <clipPath id="clip-path">
      <rect id="Rectangle_5688" data-name="Rectangle 5688" width="74.532" height="74.277" fill="#fff"/>
    </clipPath>
  </defs>
  <g id="Group_4212" data-name="Group 4212" clip-path="url(#clip-path)">
    <path id="Path_64532" data-name="Path 64532" d="M25.091,62.258a19.386,19.386,0,0,0,2.71,1.8,23.494,23.494,0,1,0,9.089-44.439A23.853,23.853,0,0,0,16.076,35.766,22.4,22.4,0,0,0,15.5,38.3a14.047,14.047,0,0,1-.967,3.5,17.562,17.562,0,0,1-2.622,3.364,26.5,26.5,0,0,0-2.628,3.231,31.176,31.176,0,0,0-4.764,13.36,47.839,47.839,0,0,0-.006,5.243c.13,3.683.264,7.491-1.417,10.7a11.2,11.2,0,0,1-1.129,1.5C.773,80.623-.459,82.109.171,83.124a1.331,1.331,0,0,0,1.181.705C3.181,83.8,5.438,79.959,5.533,79.8c2.373-4.079,2.283-8.431,2.2-12.64a33.825,33.825,0,0,1,.6-8.825c1.262-5.158,3.186-7.52,6.1-11.095.425-.521.868-1.066,1.331-1.645a11.9,11.9,0,0,0,2.565-5.827q.055-.254.112-.513c0,.026,0,.05,0,.076.022.971,1.094,2.1,2.834,3.018a48,48,0,0,1-4.229,3.986C13.267,49.6,9.71,52.686,9.087,58.647c-.189,1.808-.489,6.153.8,7.473a1.37,1.37,0,0,0,1,.433c.04,0,.079,0,.12-.005l.079-.014c1.519-.418,1.327-2.237,1.159-3.842a9.8,9.8,0,0,1-.089-1.741,5.448,5.448,0,0,1,2.867-4.538c3.3-1.827,8.783-1.14,12.183.578a10.873,10.873,0,0,1,1.151.771c1.257.907,2.682,1.933,3.747,1.671a1.324,1.324,0,0,0,.874-.734c.655-1.32-.978-2.4-2.289-3.271-.373-.248-.756-.5-1.024-.722,1.758-1.512,3.246-2.128,5.658-1.233a6.677,6.677,0,0,1,.882.486c.963.584,2.054,1.245,2.9.91a1.363,1.363,0,0,0,.792-.98,1.569,1.569,0,0,0-.332-1.413c-1.2-1.585-4.941-2.634-6.133-2.634h0c-2.778,0-4.976,1.723-6.932,3.316a17.345,17.345,0,0,0-11.911-.031,32.38,32.38,0,0,1,2.722-2.84c.865-.015,1.759.042,2.624.1a25.149,25.149,0,0,0,3.617.057,17.558,17.558,0,0,0,9.68-3.846c1.922,1.166,4.438,2.116,7.253.069.475-.346,1.832-1.583,1.824-2.687a1.194,1.194,0,0,0-.534-1c-.932-.659-1.924.094-2.8.757a4.025,4.025,0,0,1-1.9,1.01,5.284,5.284,0,0,1-2.08-.82c.018-.072.041-.162.061-.241.219-.84.584-2.245-.058-2.981a1.378,1.378,0,0,0-1.284-.4c-1.225.147-1.351,1.03-1.443,1.675a2.88,2.88,0,0,1-.157.7A6.852,6.852,0,0,1,29.7,45.257a.361.361,0,0,1-.134.023c-1.119-1.21-.141-2.745,1.251-4.62a5.039,5.039,0,0,0,1.177-2.1,1.647,1.647,0,0,0-2.006-1.679c-1.443.362-3.189,3.592-3.728,6.129a4.91,4.91,0,0,0,.3,3.641,21.36,21.36,0,0,1-5.711.7c.419-.465.867-.9,1.305-1.333A13.216,13.216,0,0,0,24.988,42.5c.421-.851,1.671-4.366.918-5.97a1.373,1.373,0,0,0-.939-.792,1.455,1.455,0,0,0-1.246.192c-.712.522-.8,1.706-.873,2.751-.018.24-.034.474-.058.682-1.612-1.054-3.006-1.436-3.794-1.021a1.037,1.037,0,0,0-.473.5c.116-.507.248-1.037.423-1.624A20.393,20.393,0,0,1,41.514,23,20.607,20.607,0,0,1,56.906,34.667a6.075,6.075,0,0,1-.949,1.033,6.633,6.633,0,0,0-.728.757,10.785,10.785,0,0,0,1.643,14.917c-.053.7-1.809,3.42-2.654,4.453a20.426,20.426,0,0,1-25.236,5.25,17.517,17.517,0,0,1-2.938-2c-1.846-1.455-3.59-2.828-6.822-2.381-5.3.733-6.786,8.509-7.875,14.186-.3,1.543-.575,3-.887,4.073-.847,2.91-2.512,6.9-4.414,8.585a8.286,8.286,0,0,1-2.115,1.094c-1.294.534-2.517,1.039-2.722,1.976a1.735,1.735,0,0,0,.584,1.538l.122.132.18,0,.184,0c6.621,0,9.862-7.689,11.209-12.3.377-1.293.7-2.99,1.039-4.787.721-3.807,1.539-8.122,3.144-10.081,2.068-2.524,4.281-1.189,7.42,1.136M58.109,48.227a7.665,7.665,0,0,1-1.391-8.063,6.018,6.018,0,0,1,.814-1.384c.175-.243.354-.491.521-.772a22.031,22.031,0,0,1,.627,3.372,31.178,31.178,0,0,1-.571,6.848" transform="translate(0 -14.015)" fill="#fff"/>
    <path id="Path_64533" data-name="Path 64533" d="M94,20.089A10.371,10.371,0,0,0,91.833,18.7a12.27,12.27,0,0,1-1.382-.8,18.936,18.936,0,0,1-4.606-5.3A27.237,27.237,0,0,0,82.258,8.04c-8.1-7.789-19.952-10.125-30.933-6.1C40.791,5.8,33.854,14.437,32.769,25.035a23.23,23.23,0,0,0-.031,2.924c.014.484.028.94.028,1.373,0,.344.273.637.729.782a1.821,1.821,0,0,0,2.007-.558c.257-.364.374-1.411.561-3.551.077-.878.149-1.707.229-2.133A25.115,25.115,0,0,1,54.824,4.036,26.06,26.06,0,0,1,81.5,11.887a24.8,24.8,0,0,1,2.27,3.263,20.17,20.17,0,0,0,2.565,3.562,18.371,18.371,0,0,0,3.578,2.652c2.6,1.607,4.84,3,4.964,7.41.131,4.659-2.306,6.292-5.129,8.184A18.433,18.433,0,0,0,85.6,40.394a23.486,23.486,0,0,0-1.847,2.7,23.179,23.179,0,0,1-1.84,2.685c-8.823,10.569-23.692,12.416-35.354,4.388-.285-.2-.663-.525-1.064-.872-1.1-.957-2.24-1.949-3.125-1.823a1.592,1.592,0,0,0-1.069.607,1.458,1.458,0,0,0-.265,1.095c.228,1.54,6.062,5.165,6.12,5.2A29.595,29.595,0,0,0,83.4,48.891a27.139,27.139,0,0,0,2.665-3.7,21.169,21.169,0,0,1,2.705-3.66,13.359,13.359,0,0,1,2.817-1.959,12.114,12.114,0,0,0,3.741-2.9A12.2,12.2,0,0,0,94,20.089" transform="translate(-23.434 0)" fill="#fff"/>
    <path id="Path_64534" data-name="Path 64534" d="M220.948,85.461c-1,1.122-2.365,2.66-1.2,3.722a1.429,1.429,0,0,0,.978.393,1.623,1.623,0,0,0,.445-.065c1.993-.569,4.1-4.912,4.382-5.918a7.925,7.925,0,0,0-.215-5.726c-.293-.815-2.345-4.775-4.289-5.22a1.428,1.428,0,0,0-1.378.39c-.971.951.281,2.5,1.385,3.857a9.123,9.123,0,0,1,1.058,1.462,5.968,5.968,0,0,1-.265,5.969,7.621,7.621,0,0,1-.905,1.134" transform="translate(-157.123 -52.02)" fill="#fff"/>
  </g>
</svg>
