<svg id="Group_4211" data-name="Group 4211" xmlns="http://www.w3.org/2000/svg" xmlns:xlink="http://www.w3.org/1999/xlink" width="67.72" height="67.555" viewBox="0 0 67.72 67.555">
  <defs>
    <clipPath id="clip-path">
      <rect id="Rectangle_5687" data-name="Rectangle 5687" width="67.72" height="67.555" fill="#fff"/>
    </clipPath>
  </defs>
  <g id="Group_4210" data-name="Group 4210" clip-path="url(#clip-path)">
    <path id="Path_64526" data-name="Path 64526" d="M67.412,126.221c-.606-1.017-3.294-3.095-5.442-4.658-10.089-7.346-21.469-10.877-32.049-9.939-8.488.751-20.627,6.293-27.635,12.617-.215.194-.418.372-.607.538-1,.879-1.661,1.46-1.68,2.241-.015.64.412,1.32,1.474,2.347A46.135,46.135,0,0,0,33.589,142.6h.031a47.568,47.568,0,0,0,32.269-12.927c.141-.131.291-.258.44-.387.859-.736,1.928-1.652,1.084-3.067m-13.575.872a2.067,2.067,0,0,0-.751,1.889c.428,1.665,3.059,1.233,5.38.853.687-.112,1.348-.221,1.853-.254-2.409,2.167-11.945,7.087-14.532,7.816a15.973,15.973,0,0,0,2.167-17.269c-.09-.184-.394-.628-.882-1.338-.316-.459-.768-1.117-1.071-1.594a48.667,48.667,0,0,1,15.892,8.845c-.721.1-1.689.158-2.7.224-2.206.143-4.488.291-5.357.827m-32.983-8.582a16.092,16.092,0,0,0-.989,1.4,15.985,15.985,0,0,0,2.059,17.5c-2.769-.712-13.281-6.27-15.571-8.633.553-.008,1.133.017,1.7.043a16.822,16.822,0,0,0,2.651-.014,1.088,1.088,0,0,0,.52-.3,2.168,2.168,0,0,1,.358-.259,5.51,5.51,0,0,1,.551.533c.687.716,1.63,1.7,2.559,1.6a1.425,1.425,0,0,0,1.057-.76c.8-1.309-.29-2.32-1.085-3.058l-.159-.149.067-.05c.559-.418,1.5-1.118,1.51-2.015a1.59,1.59,0,0,0-.7-1.263c-1.224-.978-2.652.113-3.912,1.076a5.66,5.66,0,0,1-1.834,1.111,8.316,8.316,0,0,1-1.9.023c-.271-.017-.546-.033-.819-.041,4.419-3.831,10.015-6.3,15.073-8.3-.324.478-.8,1.115-1.129,1.564m23.034,15.778c-2.483,3.933-6.738,5.7-11.987,4.983-6.929-.951-10.078-6.723-10.126-12.023s2.867-11.089,9.486-12.118a17.654,17.654,0,0,1,2.71-.218A11.194,11.194,0,0,1,43.8,119.9a13.678,13.678,0,0,1,.086,14.392" transform="translate(0 -75.048)" fill="#fff"/>
    <path id="Path_64527" data-name="Path 64527" d="M67.688,9.994a1.484,1.484,0,0,0,.61.408,1.407,1.407,0,0,1,.3.16,6.591,6.591,0,0,1,.018,2.125c-.1,1.1-.2,2.13.449,2.817a2.876,2.876,0,0,0,2.252.663l.128.195a5.89,5.89,0,0,1,.022,1.817c-.1,1.319-.221,2.815.9,3.334a24.652,24.652,0,0,0,5.442.362c1.439,0,2.709-.036,3.146-.079,2.593-.257,2.466-2.489,2.365-4.283-.027-.485-.056-.982-.038-1.438a2.377,2.377,0,0,0,2-.417c.776-.7.651-2.033.541-3.206a4.427,4.427,0,0,1,.051-1.922c.031-.019.074-.041.124-.068A2.8,2.8,0,0,0,87.047,9.6a45.031,45.031,0,0,0,2.9-6.872C90.224,1.3,89.849.333,88.92.075c-1.829-.5-2.739,2.261-3.47,4.486a10.241,10.241,0,0,1-.84,2.123c-.234.326-.275.331-.674.372l-.172.019a47.286,47.286,0,0,1-7.355.01A58.757,58.757,0,0,0,70.141,7a7.606,7.606,0,0,1-1.2-2.633c-.726-2.109-1.551-4.5-3.08-4.361l-.05.008c-1.722.435-1.42,1.826-1.239,2.657a41.079,41.079,0,0,0,3.118,7.323m12.09,8.254h-5.1V16.023h5.1Zm-7.662-7.662h10.22v1.905H72.269a.338.338,0,0,0-.151.034Z" transform="translate(-43.374 0)" fill="#fff"/>
    <path id="Path_64528" data-name="Path 64528" d="M98.392,73.818a34.137,34.137,0,0,0-.07,6.3c.03.889.056,1.656.056,2.109,0,.3.359.6.661.8a1.912,1.912,0,0,0,.952.363.708.708,0,0,0,.193-.025,2.378,2.378,0,0,0,1.089-.622c.225-.212.317-.362.317-.519V73.915c0-.555-.685-.856-1.271-.946-.731-.11-1.675.044-1.927.849" transform="translate(-66.131 -49.103)" fill="#fff"/>
    <path id="Path_64529" data-name="Path 64529" d="M119.735,81.395c-.86.124-2.332,2.276-2.762,2.933-.535.816-1.754,2.8-1.533,3.6l.014.042a1.778,1.778,0,0,0,1.171,1.045,1.854,1.854,0,0,0,.492.066,2.051,2.051,0,0,0,1.205-.406,52.681,52.681,0,0,0,3.326-4.976,1.79,1.79,0,0,0-.383-1.675,1.7,1.7,0,0,0-1.53-.632" transform="translate(-77.698 -54.787)" fill="#fff"/>
    <path id="Path_64530" data-name="Path 64530" d="M73.986,81.4c-.58.15-.972.818-1.248,1.383l-.026.076c-.144.68,3.059,5.633,3.312,5.819a1.95,1.95,0,0,0,1.171.4,2.209,2.209,0,0,0,.949-.226l.043-.025c1.043-.71.85-1.5.514-2.378-.292-.765-3.132-5.453-4.714-5.047" transform="translate(-48.948 -54.781)" fill="#fff"/>
    <path id="Path_64531" data-name="Path 64531" d="M81.759,128.448a9.76,9.76,0,0,0-7.88,5.4,10.281,10.281,0,0,0,.284,9.932,9.856,9.856,0,0,0,8.584,4.848q.507,0,1.022-.049a9.966,9.966,0,0,0,8.564-6.587,10.128,10.128,0,0,0-10.574-13.547M76.191,137.6a7.6,7.6,0,0,1,5.054-5.559,6.074,6.074,0,0,1,1.769-.269,6.687,6.687,0,0,1,4.694,11.188,6.365,6.365,0,0,1-9.164.67,6.067,6.067,0,0,1-2.352-6.031" transform="translate(-48.969 -86.44)" fill="#fff"/>
  </g>
</svg>
