<svg id="Group_4209" data-name="Group 4209" xmlns="http://www.w3.org/2000/svg" xmlns:xlink="http://www.w3.org/1999/xlink" width="80.781" height="62.668" viewBox="0 0 80.781 62.668">
  <defs>
    <clipPath id="clip-path">
      <rect id="Rectangle_5686" data-name="Rectangle 5686" width="80.781" height="62.668" fill="#fff"/>
    </clipPath>
  </defs>
  <g id="Group_4208" data-name="Group 4208" clip-path="url(#clip-path)">
    <path id="Path_64521" data-name="Path 64521" d="M314.5,91.146c-.367-4.516-3.471-11.772-8.344-13.651a5.451,5.451,0,0,0-5.172.389c-3.606,2.34-5.226,9.167-5.435,13.184-.061,1.179-.01,7.434.93,8.737a1.419,1.419,0,0,0,1.594.545,1.528,1.528,0,0,0,1.094-1.419,11.887,11.887,0,0,0-.322-2.364,16.959,16.959,0,0,1-.32-2.042c-.238-4.287.64-11.569,4.029-14.061a2.222,2.222,0,0,1,1.784-.417c1.677.294,3.483,2.21,4.521,3.762A16.6,16.6,0,0,1,308.735,102c-.685,1-2.49,3.362-4.463,3.6a2.775,2.775,0,0,1-2.243-.8,5.411,5.411,0,0,1-.815-1.1c-.563-.9-1.263-2.021-2.47-1.634a1.235,1.235,0,0,0-.891.853c-.326,1.191,1.157,2.98,1.62,3.5a5.949,5.949,0,0,0,4.441,2.275,5.505,5.505,0,0,0,1.982-.385c4.788-1.838,8.635-9.692,8.609-13.843V91.146Z" transform="translate(-233.722 -60.918)" fill="#fff"/>
    <path id="Path_64522" data-name="Path 64522" d="M50.854,72.784c-.178.021-.4.023-.635.025a2.532,2.532,0,0,0-2,.552A1.5,1.5,0,0,0,48,74.639c.179.926,1.161,1.162,2.206,1.162a13.944,13.944,0,0,0,1.916-.175c.131-.018.249-.035.35-.048,7.945-.993,14.146-5.086,20.106-13.269,3.457-4.746,4.51-11.076,2.963-17.823a29.7,29.7,0,0,0-9.425-15.775,26.715,26.715,0,0,0-39.269,5.554A26.7,26.7,0,0,0,41.49,74.729c2.522.73,3.191.741,3.475.685a1.424,1.424,0,0,0,1.111-1.13,1.454,1.454,0,0,0-.562-1.518,11.882,11.882,0,0,0-2.835-.873c-.758-.185-1.475-.361-1.86-.5a22.5,22.5,0,0,1-6.731-3.862,4.33,4.33,0,0,1,1.667-1.279,15.542,15.542,0,0,1,2.772-.872A13,13,0,0,0,42.319,64c.846-.518,2.955-2.381,3.156-3.912a1.448,1.448,0,0,0-.375-1.229,1.382,1.382,0,0,0-1.135-.525c-.708.074-1.192.857-1.582,1.486a5.714,5.714,0,0,1-.359.539c-1.114,1.373-2.692,1.782-4.366,2.2a9.541,9.541,0,0,1-.307-3.294,5.166,5.166,0,0,1,.125-.66c.194-.843.487-2.117-.645-2.491a1.56,1.56,0,0,0-1.409.112c-.758.5-.954,1.714-1.045,2.833a14.474,14.474,0,0,0,.4,4.4,7.548,7.548,0,0,0-2.911,2.043,19.474,19.474,0,0,1-2-2.316,24.043,24.043,0,0,1-4.428-16.581,6.885,6.885,0,0,1,4.816.582,4.852,4.852,0,0,1,.523.385c.65.521,1.634,1.31,2.535.33a1.359,1.359,0,0,0,.32-1.449c-.569-1.577-3.687-2.823-4.617-2.948A10.11,10.11,0,0,0,27.2,43.5c-.4.021-.819.044-1.2.031a23.493,23.493,0,0,1,7.847-12.592,9.1,9.1,0,0,0,2.933,1.509c.307.112.622.227.932.354-.966,2.185-1.347,5.22.044,7.039a1.549,1.549,0,0,0,1.89.522,1.437,1.437,0,0,0,.808-1.653,2.538,2.538,0,0,0-.28-.674,2.4,2.4,0,0,1-.3-.769,6,6,0,0,1,.918-3.827,7.094,7.094,0,0,1,3.178,1.423,2.94,2.94,0,0,1,.372.5,1.512,1.512,0,0,0,1.731.91,1.3,1.3,0,0,0,.976-.718,1.94,1.94,0,0,0-.145-1.7c-1.245-2.361-4.134-3.03-6.928-3.678A19.363,19.363,0,0,1,36.341,29.1c.018-.013.036-.026.054-.041a20.311,20.311,0,0,1,3.319-1.734,23.805,23.805,0,0,1,27.344,6.55c-2.122.131-4,1.5-5.465,4-3.26,5.567-3.609,15.706-.761,22.14.944,2.133,2.621,4.724,5.341,5.374a23.911,23.911,0,0,1-15.319,7.387M66.647,36.962c1.987-.415,3.5,1.565,4.425,3.3,2.912,5.482,2.792,14.165-.267,19.355-.7,1.194-1.822,2.664-3.149,2.883a2.628,2.628,0,0,1-2.153-.76c-3.55-3.058-3.952-11.952-3.378-16.033.382-2.714,2.154-8.249,4.521-8.745" transform="translate(-17.627 -17.794)" fill="#fff"/>
    <path id="Path_64523" data-name="Path 64523" d="M58.187,45.061a1.641,1.641,0,0,0-1.841.02l-.072.042-.042.073A28.6,28.6,0,0,1,32.109,59.663a28.084,28.084,0,0,1-24.5-12.747,27.708,27.708,0,0,1-.827-29.69A28.635,28.635,0,0,1,33.556,3.014c.3.02.74.1,1.2.182a6.139,6.139,0,0,0,2.733.144A1.376,1.376,0,0,0,38.4,2.017,1.617,1.617,0,0,0,37.237.565c-1.886-.637-6.11-.633-8.331-.481A30.779,30.779,0,0,0,3.71,16.662,31.245,31.245,0,0,0,29.476,62.609q.968.06,1.936.059a31.571,31.571,0,0,0,12.6-2.609A30.7,30.7,0,0,0,56.2,50.468a24.448,24.448,0,0,0,2.424-3.688,1.562,1.562,0,0,0-.436-1.719" transform="translate(0 0)" fill="#fff"/>
    <path id="Path_64524" data-name="Path 64524" d="M210.991,21.983A31.387,31.387,0,0,0,200.022,11.44c-.041-.024-4.2-2.354-5.211-2.177a1.772,1.772,0,0,0-1.111.932c-.464,1.554.844,2.011,1.8,2.345a7,7,0,0,1,.736.287,28.8,28.8,0,0,1,12.346,10.9c.119.183.244.426.376.684.462.9,1.033,2.008,2.036,2.008.039,0,.08,0,.121-.005a1.327,1.327,0,0,0,1.18-.67c.479-.974-.581-2.629-1.151-3.519-.059-.092-.111-.174-.154-.243" transform="translate(-153.111 -7.318)" fill="#fff"/>
    <path id="Path_64525" data-name="Path 64525" d="M220.319,130.423c.359,1.6,1.484,3.455,2.939,3.89a2.266,2.266,0,0,0,.652.1,2.811,2.811,0,0,0,1.968-.912c1.593-1.543,2.265-5.672,1.437-8.837-.481-1.838-1.384-2.98-2.61-3.3a2.842,2.842,0,0,0-2.869.663c-1.951,1.879-1.948,6.475-1.516,8.4m3.55-6.114a3.164,3.164,0,0,1,.46.9,8.841,8.841,0,0,1,.035,5.014c-.3.92-.52.995-.518,1a4,4,0,0,1-.8-2.374,7.078,7.078,0,0,1,.822-4.535" transform="translate(-174.055 -95.872)" fill="#fff"/>
  </g>
</svg>
