<svg xmlns="http://www.w3.org/2000/svg" width="284.381" height="67.629" viewBox="0 0 284.381 67.629">
  <g id="Group_4242" data-name="Group 4242" transform="translate(13673 -146)">
    <g id="Group_4240" data-name="Group 4240" transform="translate(92 36.636)">
      <path id="Path_64563" data-name="Path 64563" d="M62.239,23.577a28.816,28.816,0,0,0-1.782-6.865q-.075-.176-.153-.35l0-.015A25.7,25.7,0,0,0,59.181,14c.021.221.033.444.033.67a6.906,6.906,0,1,1-4.3-6.4,27.776,27.776,0,0,0-9.292-6.106,33.724,33.724,0,0,0-41.3,48.078l.383-.676a.27.27,0,0,0,.043-.076l0,0h0a3.214,3.214,0,0,0-.163-1.533c-1.959-7.209-1.258-15.6,2.78-22.022C12.418,17.9,23.8,14.838,32.8,16.127c7.464,1.069,15.789,8.532,16.489,16.25a14.245,14.245,0,0,1-.224,4.219L48.7,37.853l-.121.474c-1.736,4.873-6.186,8.29-11.2,10.385-.486.2-1.97.43-.379.773a25.325,25.325,0,0,0,5.015.14c7.853-.319,14.918-3.862,18.171-11.173a27.92,27.92,0,0,0,2.338-10.889,36.958,36.958,0,0,0-.284-3.986" transform="translate(-13765 109.364)" fill="#65bd9c"/>
      <path id="Path_64564" data-name="Path 64564" d="M436.314,87.191a5.721,5.721,0,1,1-5.721-5.721,5.721,5.721,0,0,1,5.721,5.721" transform="translate(-14143.351 36.815)" fill="#fff"/>
      <path id="Path_64565" data-name="Path 64565" d="M44.924,185.452a28.824,28.824,0,0,0,1.782,6.865q.075.176.153.35l0,.015a25.681,25.681,0,0,0,1.125,2.348c-.021-.221-.033-.444-.033-.67a6.906,6.906,0,1,1,4.3,6.4,27.776,27.776,0,0,0,9.292,6.107,33.724,33.724,0,0,0,41.3-48.078l-.383.676a.27.27,0,0,0-.043.076l0,0h0a3.214,3.214,0,0,0,.163,1.533c1.959,7.209,1.258,15.6-2.78,22.022-5.049,8.031-16.427,11.092-25.431,9.8-7.464-1.069-15.789-8.532-16.489-16.25a14.245,14.245,0,0,1,.224-4.219l.365-1.257.121-.474c1.736-4.873,6.186-8.29,11.2-10.385.486-.2,1.97-.43.379-.773a25.328,25.328,0,0,0-5.015-.14c-7.853.319-14.918,3.862-18.171,11.173a27.921,27.921,0,0,0-2.338,10.889,36.929,36.929,0,0,0,.284,3.986" transform="translate(-13804.752 -32.036)" fill="#fff"/>
      <path id="Path_64566" data-name="Path 64566" d="M86.282,437.388A5.721,5.721,0,1,1,92,443.109a5.721,5.721,0,0,1-5.721-5.721" transform="translate(-13841.835 -275.037)" fill="#65bd9c"/>
      <rect id="Rectangle_5694" data-name="Rectangle 5694" width="67.411" height="67.629" transform="translate(-13765 109.364)" fill="none"/>
    </g>
    <g id="Group_4241" data-name="Group 4241" transform="translate(-118 261.463)">
      <path id="Path_64449" data-name="Path 64449" d="M224.541,21.922h8.106q3.86,0,5.79,2.108a7.2,7.2,0,0,1,1.96,5.137,7.049,7.049,0,0,1-2.019,5.107q-2.019,2.019-6.058,2.019h-3.385v7.572h-4.395Zm4.395,10.393h3.534a3.432,3.432,0,0,0,2.539-.906,3.117,3.117,0,0,0,.906-2.3,3.049,3.049,0,0,0-.876-2.227,3.122,3.122,0,0,0-2.331-.891h-3.771Z" transform="translate(-13701.444 -125.028)" fill="#fff"/>
      <path id="Path_64450" data-name="Path 64450" d="M282.384,43.866h-4.632l-1.633-4.751h-7.661l-1.692,4.751h-4.6l8.374-21.944h3.593ZM274.871,35.2l-2.553-7.3L269.7,35.2Z" transform="translate(-13723.802 -125.028)" fill="#fff"/>
      <path id="Path_64451" data-name="Path 64451" d="M332.965,35.492V21.922H337.3V43.866h-3L322.928,30.414V43.866h-4.335V21.922h2.791Z" transform="translate(-13757.339 -125.028)" fill="#fff"/>
      <path id="Path_64452" data-name="Path 64452" d="M391.078,35.492V21.922h4.335V43.866h-3L381.042,30.414V43.866h-4.335V21.922H379.5Z" transform="translate(-13791.876 -125.028)" fill="#fff"/>
      <path id="Path_64453" data-name="Path 64453" d="M434.234,35.849V21.922h4.425v13.63a4.537,4.537,0,0,0,1.1,3.3,4.069,4.069,0,0,0,3.059,1.128,3.937,3.937,0,0,0,3-1.158,4.559,4.559,0,0,0,1.1-3.266V21.922h4.454V35.849a7.894,7.894,0,0,1-2.435,6.265,8.863,8.863,0,0,1-6.117,2.138,8.973,8.973,0,0,1-6.147-2.138,7.891,7.891,0,0,1-2.435-6.265" transform="translate(-13826.064 -125.028)" fill="#fff"/>
      <path id="Path_64454" data-name="Path 64454" d="M521.521,43.866h-15.56V21.922h4.424V39.65h11.135Z" transform="translate(-13868.691 -125.028)" fill="#fff"/>
      <path id="Path_64455" data-name="Path 64455" d="M566.073,43.866h-4.632l-1.634-4.751h-7.661l-1.692,4.751h-4.6l8.373-21.944h3.593ZM558.56,35.2l-2.554-7.3-2.613,7.3Z" transform="translate(-13892.398 -125.028)" fill="#fff"/>
      <path id="Path_64456" data-name="Path 64456" d="M604.375,43.7a10.783,10.783,0,0,1-4.781-1.069,8.909,8.909,0,0,1-3.534-3.029l2.524-3.058a6.831,6.831,0,0,0,5.82,3.058,3.714,3.714,0,0,0,2.257-.653,2.008,2.008,0,0,0,.891-1.692q0-1.366-1.989-2.287-.239-.118-2.168-.861a21.538,21.538,0,0,1-2.583-1.188,6.076,6.076,0,0,1-3.474-5.463,5.806,5.806,0,0,1,2.078-4.573,7.919,7.919,0,0,1,5.4-1.841,9.76,9.76,0,0,1,7.215,2.97l-2.346,3.207a6.306,6.306,0,0,0-2.212-1.5,6.741,6.741,0,0,0-2.6-.549,3.317,3.317,0,0,0-2.064.579,1.832,1.832,0,0,0-.757,1.529q0,1.277,1.782,2.168l2.167.95q1.841.772,2.672,1.158,3.742,1.812,3.742,5.464a6,6,0,0,1-2.227,4.81,8.744,8.744,0,0,1-5.82,1.871" transform="translate(-13922.237 -124.506)" fill="#fff"/>
      <path id="Path_64457" data-name="Path 64457" d="M659.9,43.866H645.025V21.922H659.9v4.1H649.449v4.721h9.68v4.1h-9.68v4.929H659.9Z" transform="translate(-13951.337 -125.028)" fill="#fff"/>
      <path id="Path_64458" data-name="Path 64458" d="M708.425,43.866h-5.137l-4.632-7.988h-2.614v7.988h-4.394V21.922h8.4a7.364,7.364,0,0,1,5.583,2.019,6.869,6.869,0,0,1,1.93,4.929,7,7,0,0,1-1.143,3.934,6.383,6.383,0,0,1-3.311,2.509Zm-8.4-17.876h-3.979v5.939h3.593a3.549,3.549,0,0,0,2.539-.831,2.853,2.853,0,0,0,.876-2.168,2.885,2.885,0,0,0-.817-2.108,2.962,2.962,0,0,0-2.212-.831" transform="translate(-13979.045 -125.028)" fill="#fff"/>
      <path id="Path_64459" data-name="Path 64459" d="M230.121,103.758l4.7-11.431h2.2l-6.331,14.9h-1.149l-6.432-14.9h2.3Z" transform="translate(-13700.591 -166.869)" fill="#fff"/>
      <path id="Path_64460" data-name="Path 64460" d="M271.925,94.621a1.386,1.386,0,0,1-1.008-.394,1.334,1.334,0,0,1-.4-1,1.278,1.278,0,0,1,.4-.968,1.407,1.407,0,0,1,1.008-.383,1.337,1.337,0,0,1,.968.393,1.288,1.288,0,0,1,.4.957,1.361,1.361,0,0,1-1.371,1.392m.927,12.339h-1.936V96.153h1.936Z" transform="translate(-13728.766 -166.603)" fill="#fff"/>
      <path id="Path_64461" data-name="Path 64461" d="M295.2,112.931a4.682,4.682,0,0,1-2.329-.6,4.23,4.23,0,0,1-1.684-1.734l1.392-1.068a3.216,3.216,0,0,0,1.179,1.27,2.877,2.877,0,0,0,1.5.444,2.121,2.121,0,0,0,1.381-.434,1.316,1.316,0,0,0,.535-1.058,1.528,1.528,0,0,0-.988-1.371q-.262-.141-1.351-.6-1.008-.423-1.33-.6a2.851,2.851,0,0,1-1.653-2.621,2.739,2.739,0,0,1,.968-2.158,3.648,3.648,0,0,1,2.56-.867,4.52,4.52,0,0,1,1.976.443,3.43,3.43,0,0,1,1.452,1.27l-1.23,1.169a2.722,2.722,0,0,0-2.319-1.25,1.646,1.646,0,0,0-1.129.373,1.2,1.2,0,0,0-.424.938,1.358,1.358,0,0,0,.908,1.27l1.19.524a11.418,11.418,0,0,1,1.451.665,2.932,2.932,0,0,1,1.835,2.722A2.981,2.981,0,0,1,298,111.984a4.163,4.163,0,0,1-2.8.947" transform="translate(-13741.051 -172.333)" fill="#fff"/>
      <path id="Path_64462" data-name="Path 64462" d="M326.54,94.621a1.387,1.387,0,0,1-1.008-.394,1.334,1.334,0,0,1-.4-1,1.278,1.278,0,0,1,.4-.968,1.407,1.407,0,0,1,1.008-.383,1.339,1.339,0,0,1,.968.393,1.288,1.288,0,0,1,.4.957,1.36,1.36,0,0,1-1.371,1.392m.927,12.339h-1.936V96.153h1.936Z" transform="translate(-13761.224 -166.603)" fill="#fff"/>
      <path id="Path_64463" data-name="Path 64463" d="M352.283,113.07a5.511,5.511,0,0,1-4.093-1.633,5.62,5.62,0,0,1-1.593-4.053,5.546,5.546,0,0,1,5.686-5.665,5.385,5.385,0,0,1,4.052,1.653,5.846,5.846,0,0,1,0,8.065,5.461,5.461,0,0,1-4.052,1.633m3.73-5.685a3.781,3.781,0,0,0-1.088-2.722,3.61,3.61,0,0,0-5.283,0,3.78,3.78,0,0,0-1.089,2.722,3.872,3.872,0,0,0,1.089,2.762,3.61,3.61,0,0,0,5.283,0,3.873,3.873,0,0,0,1.088-2.762" transform="translate(-13773.981 -172.451)" fill="#fff"/>
      <path id="Path_64464" data-name="Path 64464" d="M392.165,112.807h-1.936V102h1.9v1.532a3.624,3.624,0,0,1,3.428-1.815,4.249,4.249,0,0,1,3.044,1.17,4.427,4.427,0,0,1,1.23,3.367v6.553h-1.915V106.8a3.563,3.563,0,0,0-.756-2.42,2.532,2.532,0,0,0-2.006-.867,2.793,2.793,0,0,0-2.157.927,3.488,3.488,0,0,0-.827,2.379Z" transform="translate(-13799.912 -172.451)" fill="#fff"/>
      <rect id="Rectangle_5665" data-name="Rectangle 5665" width="2.016" height="14.899" transform="translate(-13383.796 -74.543)" fill="#fff"/>
      <path id="Path_64465" data-name="Path 64465" d="M479.132,112.807H477.2V102h1.9v1.532a3.624,3.624,0,0,1,3.428-1.815,4.249,4.249,0,0,1,3.044,1.17,4.427,4.427,0,0,1,1.23,3.367v6.553h-1.915V106.8a3.563,3.563,0,0,0-.756-2.42,2.532,2.532,0,0,0-2.006-.867,2.793,2.793,0,0,0-2.157.927,3.488,3.488,0,0,0-.827,2.379Z" transform="translate(-13851.597 -172.451)" fill="#fff"/>
      <path id="Path_64466" data-name="Path 64466" d="M519.424,112.931a4.682,4.682,0,0,1-2.329-.6,4.228,4.228,0,0,1-1.684-1.734l1.391-1.068a3.219,3.219,0,0,0,1.179,1.27,2.878,2.878,0,0,0,1.5.444,2.121,2.121,0,0,0,1.381-.434,1.317,1.317,0,0,0,.534-1.058,1.528,1.528,0,0,0-.988-1.371q-.262-.141-1.351-.6-1.008-.423-1.331-.6a2.852,2.852,0,0,1-1.653-2.621,2.739,2.739,0,0,1,.968-2.158,3.647,3.647,0,0,1,2.56-.867,4.521,4.521,0,0,1,1.976.443,3.432,3.432,0,0,1,1.452,1.27L521.8,104.4a2.722,2.722,0,0,0-2.319-1.25,1.648,1.648,0,0,0-1.129.373,1.2,1.2,0,0,0-.424.938,1.358,1.358,0,0,0,.908,1.27l1.19.524a11.45,11.45,0,0,1,1.452.665,2.932,2.932,0,0,1,1.835,2.722,2.981,2.981,0,0,1-1.089,2.339,4.161,4.161,0,0,1-2.8.947" transform="translate(-13874.308 -172.333)" fill="#fff"/>
      <path id="Path_64467" data-name="Path 64467" d="M554.689,105.472l.726,1.492a4.562,4.562,0,0,1-2.883.908,3.162,3.162,0,0,1-2.571-1.048,4.564,4.564,0,0,1-.877-3V98.455h-1.916V96.8H549.1V92.971H551V96.8h3.831v1.653H551v5.5q0,2.138,1.754,2.138a3.615,3.615,0,0,0,1.936-.625" transform="translate(-13893.181 -167.252)" fill="#fff"/>
      <path id="Path_64468" data-name="Path 64468" d="M581.676,94.621a1.385,1.385,0,0,1-1.008-.394,1.334,1.334,0,0,1-.4-1,1.278,1.278,0,0,1,.4-.968,1.406,1.406,0,0,1,1.008-.383,1.338,1.338,0,0,1,.968.393,1.288,1.288,0,0,1,.4.957,1.361,1.361,0,0,1-1.371,1.392m.927,12.339h-1.936V96.153H582.6Z" transform="translate(-13912.85 -166.603)" fill="#fff"/>
      <path id="Path_64469" data-name="Path 64469" d="M607.961,105.472l.726,1.492a4.562,4.562,0,0,1-2.883.908,3.162,3.162,0,0,1-2.571-1.048,4.563,4.563,0,0,1-.877-3V98.455H600.44V96.8h1.936V92.971h1.9V96.8H608.1v1.653h-3.831v5.5q0,2.138,1.754,2.138a3.615,3.615,0,0,0,1.936-.625" transform="translate(-13924.84 -167.252)" fill="#fff"/>
      <path id="Path_64470" data-name="Path 64470" d="M638.82,113.483a4.582,4.582,0,0,1-3.377-1.25,4.527,4.527,0,0,1-1.26-3.367v-6.452h1.936v6.391a2.989,2.989,0,0,0,.715,2.107,2.569,2.569,0,0,0,1.986.776,2.6,2.6,0,0,0,2-.776,2.963,2.963,0,0,0,.726-2.107v-6.391h1.915v6.452a4.556,4.556,0,0,1-1.24,3.387,4.611,4.611,0,0,1-3.4,1.23" transform="translate(-13944.894 -172.864)" fill="#fff"/>
      <path id="Path_64471" data-name="Path 64471" d="M678.627,105.472l.726,1.492a4.562,4.562,0,0,1-2.883.908,3.162,3.162,0,0,1-2.571-1.048,4.563,4.563,0,0,1-.877-3V98.455h-1.916V96.8h1.936V92.971h1.9V96.8h3.831v1.653h-3.831v5.5q0,2.138,1.754,2.138a3.615,3.615,0,0,0,1.936-.625" transform="translate(-13966.837 -167.252)" fill="#fff"/>
      <path id="Path_64472" data-name="Path 64472" d="M713.895,107.232q0,.2-.06.988h-8.609a3.514,3.514,0,0,0,3.79,3.085,6.465,6.465,0,0,0,2-.333,6.255,6.255,0,0,0,1.774-.877l.827,1.472a7.476,7.476,0,0,1-2.1,1.079,7.71,7.71,0,0,1-2.541.433,6.629,6.629,0,0,1-2.611-.484,4.538,4.538,0,0,1-1.8-1.311,6.023,6.023,0,0,1-1.008-1.814,6.293,6.293,0,0,1-.343-2.077,5.667,5.667,0,0,1,1.513-4.032,5.239,5.239,0,0,1,3.951-1.593,5.037,5.037,0,0,1,3.75,1.472,5.4,5.4,0,0,1,1.472,3.992m-8.669-.685H711.9a3.1,3.1,0,0,0-3.226-3.065,3.251,3.251,0,0,0-2.258.857,3.782,3.782,0,0,0-1.19,2.208" transform="translate(-13985.915 -172.48)" fill="#fff"/>
    </g>
  </g>
</svg>
