<svg id="Group_4171" data-name="Group 4171" xmlns="http://www.w3.org/2000/svg" xmlns:xlink="http://www.w3.org/1999/xlink" width="297.381" height="58.748" viewBox="0 0 297.381 58.748">
  <defs>
    <clipPath id="clip-path">
      <rect id="Rectangle_5666" data-name="Rectangle 5666" width="297.381" height="58.748" fill="#fff"/>
    </clipPath>
  </defs>
  <g id="Group_4170" data-name="Group 4170" clip-path="url(#clip-path)">
    <path id="Path_64444" data-name="Path 64444" d="M70.646,61.92C67.861,86.55,39.659,97.094,20.992,80.314L0,59.323l.108-.546,9.1-8.754c-.431,3.309-1.244,6.575-1.081,9.95H17A24.422,24.422,0,0,0,65.671,61.92Z" transform="translate(0 -29.729)" fill="#fff"/>
    <path id="Path_64445" data-name="Path 64445" d="M30.16,26.567C32.921,1.9,61.144-8.609,79.814,8.173l20.992,20.992-.108.546L91.166,38.9a28.668,28.668,0,0,0,1.3-5.733,23.911,23.911,0,0,0,.229-4.12c-.026-.217-.1-.746-.335-.746H83.811a24.532,24.532,0,0,0-31.7-22.286A24.787,24.787,0,0,0,36.428,20.829c-.692,1.9-.919,3.918-1.616,5.738Z" transform="translate(-17.924 0)" fill="#fff"/>
    <path id="Path_64446" data-name="Path 64446" d="M134.14,92.825c.456-.857,1.154-1.833,1.514-2.6l.432-.216c-.4.908-.9,2.527-1.947,2.812" transform="translate(-79.719 -53.494)" fill="#1780c3"/>
    <path id="Path_64447" data-name="Path 64447" d="M70.015,21.793C54.679,23.16,46.365,40.664,54.779,53.558,63.945,67.6,85.346,65.186,91.265,49.532c5.409-14.307-6.15-29.085-21.249-27.739" transform="translate(-30.565 -12.901)" fill="#65bd9c"/>
    <path id="Path_64448" data-name="Path 64448" d="M92.446,57.044c7.327-.777,9.667,9.725,2.76,12.062-8.857,3-11.685-11.115-2.76-12.062" transform="translate(-51.701 -33.877)" fill="#fff"/>
    <path id="Path_64449" data-name="Path 64449" d="M224.541,21.922h8.106q3.86,0,5.79,2.108a7.2,7.2,0,0,1,1.96,5.137,7.049,7.049,0,0,1-2.019,5.107q-2.019,2.019-6.058,2.019h-3.385v7.572h-4.395Zm4.395,10.393h3.534a3.432,3.432,0,0,0,2.539-.906,3.117,3.117,0,0,0,.906-2.3,3.049,3.049,0,0,0-.876-2.227,3.122,3.122,0,0,0-2.331-.891h-3.771Z" transform="translate(-133.444 -13.028)" fill="#fff"/>
    <path id="Path_64450" data-name="Path 64450" d="M282.384,43.866h-4.632l-1.633-4.751h-7.661l-1.692,4.751h-4.6l8.374-21.944h3.593ZM274.871,35.2l-2.553-7.3L269.7,35.2Z" transform="translate(-155.802 -13.028)" fill="#fff"/>
    <path id="Path_64451" data-name="Path 64451" d="M332.965,35.492V21.922H337.3V43.866h-3L322.928,30.414V43.866h-4.335V21.922h2.791Z" transform="translate(-189.339 -13.028)" fill="#fff"/>
    <path id="Path_64452" data-name="Path 64452" d="M391.078,35.492V21.922h4.335V43.866h-3L381.042,30.414V43.866h-4.335V21.922H379.5Z" transform="translate(-223.876 -13.028)" fill="#fff"/>
    <path id="Path_64453" data-name="Path 64453" d="M434.234,35.849V21.922h4.425v13.63a4.537,4.537,0,0,0,1.1,3.3,4.069,4.069,0,0,0,3.059,1.128,3.937,3.937,0,0,0,3-1.158,4.559,4.559,0,0,0,1.1-3.266V21.922h4.454V35.849a7.894,7.894,0,0,1-2.435,6.265,8.863,8.863,0,0,1-6.117,2.138,8.973,8.973,0,0,1-6.147-2.138,7.891,7.891,0,0,1-2.435-6.265" transform="translate(-258.064 -13.028)" fill="#fff"/>
    <path id="Path_64454" data-name="Path 64454" d="M521.521,43.866h-15.56V21.922h4.424V39.65h11.135Z" transform="translate(-300.692 -13.028)" fill="#fff"/>
    <path id="Path_64455" data-name="Path 64455" d="M566.073,43.866h-4.632l-1.634-4.751h-7.661l-1.692,4.751h-4.6l8.373-21.944h3.593ZM558.56,35.2l-2.554-7.3-2.613,7.3Z" transform="translate(-324.398 -13.028)" fill="#fff"/>
    <path id="Path_64456" data-name="Path 64456" d="M604.375,43.7a10.783,10.783,0,0,1-4.781-1.069,8.909,8.909,0,0,1-3.534-3.029l2.524-3.058a6.831,6.831,0,0,0,5.82,3.058,3.714,3.714,0,0,0,2.257-.653,2.008,2.008,0,0,0,.891-1.692q0-1.366-1.989-2.287-.239-.118-2.168-.861a21.538,21.538,0,0,1-2.583-1.188,6.076,6.076,0,0,1-3.474-5.463,5.806,5.806,0,0,1,2.078-4.573,7.919,7.919,0,0,1,5.4-1.841,9.76,9.76,0,0,1,7.215,2.97l-2.346,3.207a6.306,6.306,0,0,0-2.212-1.5,6.741,6.741,0,0,0-2.6-.549,3.317,3.317,0,0,0-2.064.579,1.832,1.832,0,0,0-.757,1.529q0,1.277,1.782,2.168l2.167.95q1.841.772,2.672,1.158,3.742,1.812,3.742,5.464a6,6,0,0,1-2.227,4.81,8.744,8.744,0,0,1-5.82,1.871" transform="translate(-354.237 -12.506)" fill="#fff"/>
    <path id="Path_64457" data-name="Path 64457" d="M659.9,43.866H645.025V21.922H659.9v4.1H649.449v4.721h9.68v4.1h-9.68v4.929H659.9Z" transform="translate(-383.337 -13.028)" fill="#fff"/>
    <path id="Path_64458" data-name="Path 64458" d="M708.425,43.866h-5.137l-4.632-7.988h-2.614v7.988h-4.394V21.922h8.4a7.364,7.364,0,0,1,5.583,2.019,6.869,6.869,0,0,1,1.93,4.929,7,7,0,0,1-1.143,3.934,6.383,6.383,0,0,1-3.311,2.509Zm-8.4-17.876h-3.979v5.939h3.593a3.549,3.549,0,0,0,2.539-.831,2.853,2.853,0,0,0,.876-2.168,2.885,2.885,0,0,0-.817-2.108,2.962,2.962,0,0,0-2.212-.831" transform="translate(-411.045 -13.028)" fill="#fff"/>
    <path id="Path_64459" data-name="Path 64459" d="M230.121,103.758l4.7-11.431h2.2l-6.331,14.9h-1.149l-6.432-14.9h2.3Z" transform="translate(-132.591 -54.869)" fill="#fff"/>
    <path id="Path_64460" data-name="Path 64460" d="M271.925,94.621a1.386,1.386,0,0,1-1.008-.394,1.334,1.334,0,0,1-.4-1,1.278,1.278,0,0,1,.4-.968,1.407,1.407,0,0,1,1.008-.383,1.337,1.337,0,0,1,.968.393,1.288,1.288,0,0,1,.4.957,1.361,1.361,0,0,1-1.371,1.392m.927,12.339h-1.936V96.153h1.936Z" transform="translate(-160.766 -54.603)" fill="#fff"/>
    <path id="Path_64461" data-name="Path 64461" d="M295.2,112.931a4.682,4.682,0,0,1-2.329-.6,4.23,4.23,0,0,1-1.684-1.734l1.392-1.068a3.216,3.216,0,0,0,1.179,1.27,2.877,2.877,0,0,0,1.5.444,2.121,2.121,0,0,0,1.381-.434,1.316,1.316,0,0,0,.535-1.058,1.528,1.528,0,0,0-.988-1.371q-.262-.141-1.351-.6-1.008-.423-1.33-.6a2.851,2.851,0,0,1-1.653-2.621,2.739,2.739,0,0,1,.968-2.158,3.648,3.648,0,0,1,2.56-.867,4.52,4.52,0,0,1,1.976.443,3.43,3.43,0,0,1,1.452,1.27l-1.23,1.169a2.722,2.722,0,0,0-2.319-1.25,1.646,1.646,0,0,0-1.129.373,1.2,1.2,0,0,0-.424.938,1.358,1.358,0,0,0,.908,1.27l1.19.524a11.418,11.418,0,0,1,1.451.665,2.932,2.932,0,0,1,1.835,2.722A2.981,2.981,0,0,1,298,111.984a4.163,4.163,0,0,1-2.8.947" transform="translate(-173.051 -60.333)" fill="#fff"/>
    <path id="Path_64462" data-name="Path 64462" d="M326.54,94.621a1.387,1.387,0,0,1-1.008-.394,1.334,1.334,0,0,1-.4-1,1.278,1.278,0,0,1,.4-.968,1.407,1.407,0,0,1,1.008-.383,1.339,1.339,0,0,1,.968.393,1.288,1.288,0,0,1,.4.957,1.36,1.36,0,0,1-1.371,1.392m.927,12.339h-1.936V96.153h1.936Z" transform="translate(-193.223 -54.603)" fill="#fff"/>
    <path id="Path_64463" data-name="Path 64463" d="M352.283,113.07a5.511,5.511,0,0,1-4.093-1.633,5.62,5.62,0,0,1-1.593-4.053,5.546,5.546,0,0,1,5.686-5.665,5.385,5.385,0,0,1,4.052,1.653,5.846,5.846,0,0,1,0,8.065,5.461,5.461,0,0,1-4.052,1.633m3.73-5.685a3.781,3.781,0,0,0-1.088-2.722,3.61,3.61,0,0,0-5.283,0,3.78,3.78,0,0,0-1.089,2.722,3.872,3.872,0,0,0,1.089,2.762,3.61,3.61,0,0,0,5.283,0,3.873,3.873,0,0,0,1.088-2.762" transform="translate(-205.982 -60.451)" fill="#fff"/>
    <path id="Path_64464" data-name="Path 64464" d="M392.165,112.807h-1.936V102h1.9v1.532a3.624,3.624,0,0,1,3.428-1.815,4.249,4.249,0,0,1,3.044,1.17,4.427,4.427,0,0,1,1.23,3.367v6.553h-1.915V106.8a3.563,3.563,0,0,0-.756-2.42,2.532,2.532,0,0,0-2.006-.867,2.793,2.793,0,0,0-2.157.927,3.488,3.488,0,0,0-.827,2.379Z" transform="translate(-231.912 -60.451)" fill="#fff"/>
    <rect id="Rectangle_5665" data-name="Rectangle 5665" width="2.016" height="14.899" transform="translate(184.204 37.457)" fill="#fff"/>
    <path id="Path_64465" data-name="Path 64465" d="M479.132,112.807H477.2V102h1.9v1.532a3.624,3.624,0,0,1,3.428-1.815,4.249,4.249,0,0,1,3.044,1.17,4.427,4.427,0,0,1,1.23,3.367v6.553h-1.915V106.8a3.563,3.563,0,0,0-.756-2.42,2.532,2.532,0,0,0-2.006-.867,2.793,2.793,0,0,0-2.157.927,3.488,3.488,0,0,0-.827,2.379Z" transform="translate(-283.596 -60.451)" fill="#fff"/>
    <path id="Path_64466" data-name="Path 64466" d="M519.424,112.931a4.682,4.682,0,0,1-2.329-.6,4.228,4.228,0,0,1-1.684-1.734l1.391-1.068a3.219,3.219,0,0,0,1.179,1.27,2.878,2.878,0,0,0,1.5.444,2.121,2.121,0,0,0,1.381-.434,1.317,1.317,0,0,0,.534-1.058,1.528,1.528,0,0,0-.988-1.371q-.262-.141-1.351-.6-1.008-.423-1.331-.6a2.852,2.852,0,0,1-1.653-2.621,2.739,2.739,0,0,1,.968-2.158,3.647,3.647,0,0,1,2.56-.867,4.521,4.521,0,0,1,1.976.443,3.432,3.432,0,0,1,1.452,1.27L521.8,104.4a2.722,2.722,0,0,0-2.319-1.25,1.648,1.648,0,0,0-1.129.373,1.2,1.2,0,0,0-.424.938,1.358,1.358,0,0,0,.908,1.27l1.19.524a11.45,11.45,0,0,1,1.452.665,2.932,2.932,0,0,1,1.835,2.722,2.981,2.981,0,0,1-1.089,2.339,4.161,4.161,0,0,1-2.8.947" transform="translate(-306.308 -60.333)" fill="#fff"/>
    <path id="Path_64467" data-name="Path 64467" d="M554.689,105.472l.726,1.492a4.562,4.562,0,0,1-2.883.908,3.162,3.162,0,0,1-2.571-1.048,4.564,4.564,0,0,1-.877-3V98.455h-1.916V96.8H549.1V92.971H551V96.8h3.831v1.653H551v5.5q0,2.138,1.754,2.138a3.615,3.615,0,0,0,1.936-.625" transform="translate(-325.181 -55.252)" fill="#fff"/>
    <path id="Path_64468" data-name="Path 64468" d="M581.676,94.621a1.385,1.385,0,0,1-1.008-.394,1.334,1.334,0,0,1-.4-1,1.278,1.278,0,0,1,.4-.968,1.406,1.406,0,0,1,1.008-.383,1.338,1.338,0,0,1,.968.393,1.288,1.288,0,0,1,.4.957,1.361,1.361,0,0,1-1.371,1.392m.927,12.339h-1.936V96.153H582.6Z" transform="translate(-344.85 -54.603)" fill="#fff"/>
    <path id="Path_64469" data-name="Path 64469" d="M607.961,105.472l.726,1.492a4.562,4.562,0,0,1-2.883.908,3.162,3.162,0,0,1-2.571-1.048,4.563,4.563,0,0,1-.877-3V98.455H600.44V96.8h1.936V92.971h1.9V96.8H608.1v1.653h-3.831v5.5q0,2.138,1.754,2.138a3.615,3.615,0,0,0,1.936-.625" transform="translate(-356.84 -55.252)" fill="#fff"/>
    <path id="Path_64470" data-name="Path 64470" d="M638.82,113.483a4.582,4.582,0,0,1-3.377-1.25,4.527,4.527,0,0,1-1.26-3.367v-6.452h1.936v6.391a2.989,2.989,0,0,0,.715,2.107,2.569,2.569,0,0,0,1.986.776,2.6,2.6,0,0,0,2-.776,2.963,2.963,0,0,0,.726-2.107v-6.391h1.915v6.452a4.556,4.556,0,0,1-1.24,3.387,4.611,4.611,0,0,1-3.4,1.23" transform="translate(-376.893 -60.864)" fill="#fff"/>
    <path id="Path_64471" data-name="Path 64471" d="M678.627,105.472l.726,1.492a4.562,4.562,0,0,1-2.883.908,3.162,3.162,0,0,1-2.571-1.048,4.563,4.563,0,0,1-.877-3V98.455h-1.916V96.8h1.936V92.971h1.9V96.8h3.831v1.653h-3.831v5.5q0,2.138,1.754,2.138a3.615,3.615,0,0,0,1.936-.625" transform="translate(-398.837 -55.252)" fill="#fff"/>
    <path id="Path_64472" data-name="Path 64472" d="M713.895,107.232q0,.2-.06.988h-8.609a3.514,3.514,0,0,0,3.79,3.085,6.465,6.465,0,0,0,2-.333,6.255,6.255,0,0,0,1.774-.877l.827,1.472a7.476,7.476,0,0,1-2.1,1.079,7.71,7.71,0,0,1-2.541.433,6.629,6.629,0,0,1-2.611-.484,4.538,4.538,0,0,1-1.8-1.311,6.023,6.023,0,0,1-1.008-1.814,6.293,6.293,0,0,1-.343-2.077,5.667,5.667,0,0,1,1.513-4.032,5.239,5.239,0,0,1,3.951-1.593,5.037,5.037,0,0,1,3.75,1.472,5.4,5.4,0,0,1,1.472,3.992m-8.669-.685H711.9a3.1,3.1,0,0,0-3.226-3.065,3.251,3.251,0,0,0-2.258.857,3.782,3.782,0,0,0-1.19,2.208" transform="translate(-417.915 -60.48)" fill="#fff"/>
  </g>
</svg>
