<svg id="Group_4196" data-name="Group 4196" xmlns="http://www.w3.org/2000/svg" xmlns:xlink="http://www.w3.org/1999/xlink" width="96.594" height="70" viewBox="0 0 96.594 70">
  <defs>
    <clipPath id="clip-path">
      <rect id="Rectangle_5677" data-name="Rectangle 5677" width="96.594" height="70" fill="#65bd9c"/>
    </clipPath>
  </defs>
  <g id="Group_4195" data-name="Group 4195" clip-path="url(#clip-path)">
    <path id="Path_64500" data-name="Path 64500" d="M178.626,162.1a4.228,4.228,0,0,0,4.227-7.32,20.266,20.266,0,0,1,29.114-1.036,26.382,26.382,0,0,1-2.626,2.775c-.536.523-1.8,1.2-1.754,2.032.038.731.75.868,1.306.537l4.237-4.072c.356-.064,1.942,2.46,2.194,2.907,9.014,15.991-5.376,34.739-23.081,29.722A20.24,20.24,0,0,1,178.626,162.1m19.884-5.922c.167-.167.173-.553.193-.787a28.148,28.148,0,0,0-.016-4.373c-.168-1.1-1.469-.9-1.641.149a27.6,27.6,0,0,0,0,4.359c.121.736.928,1.187,1.465.652m-10.863,10.934a13.655,13.655,0,0,1,.035,2c.963,9.82,13.953,12.854,18.984,4.35,5.576-9.426-5.525-19.853-14.811-13.453-.374.258-1.209,1.139-1.462,1.255-.8.364-1.736-.219-2.939.683a3.2,3.2,0,0,0-.655,4.425,4.586,4.586,0,0,0,.847.736m-1.814,1.744c.634-.635,0-1.348-.807-1.46a25.225,25.225,0,0,0-4.2-.005c-1.136.179-1.269,1.464-.307,1.648a30.409,30.409,0,0,0,4.531.009c.234-.02.621-.026.787-.193m24.748-1.437c-.5.091-.8.278-.868.808a.854.854,0,0,0,.684.811,35.629,35.629,0,0,0,4.822,0,.839.839,0,0,0,.545-1.293,1.54,1.54,0,0,0-.728-.327,23.674,23.674,0,0,0-4.455,0m-12.828,12.663a.912.912,0,0,0-.706.817,27.582,27.582,0,0,0-.012,4.37c.144,1.235,1.48,1.257,1.659.3a38.561,38.561,0,0,0-.075-5.048.792.792,0,0,0-.865-.434" transform="translate(-150.853 -125.731)" fill="#65bd9c"/>
    <path id="Path_64501" data-name="Path 64501" d="M380.011,206.012l2.462-1.536a21.8,21.8,0,0,0,8.815-20.682,25.312,25.312,0,0,0-5.094-11.508c.81-.3,1.788-1.974,2.423-2.267a1.1,1.1,0,0,1,.875.028,33.254,33.254,0,0,1,4.609,1.88,60.775,60.775,0,0,1,19.555,14.714c.1.576-7.286,6.586-8.305,7.359-7.476,5.668-16.043,10.225-25.338,12.012" transform="translate(-322.66 -144.29)" fill="#65bd9c"/>
    <path id="Path_64502" data-name="Path 64502" d="M62.959,157.991l-2.938,2.116c-.536.461-2.108,2.31-2.5,2.484-.371.166-.832.029-1.242.116a4.242,4.242,0,0,0-3.44,4.571c.069.825.758,1.848.756,2.236,0,.653-.7,2.494-.853,3.388a21.849,21.849,0,0,0,7.578,20.549l2.409,1.817c-11.81-2.985-22.364-9.917-30.707-18.641,8.365-8.78,19.006-15.831,30.935-18.637" transform="translate(-27.191 -134.147)" fill="#65bd9c"/>
    <path id="Path_64503" data-name="Path 64503" d="M69.538,92.235a.976.976,0,0,1-.753.16c-1.34-.178-3.969-1.331-5.516-1.741a64.47,64.47,0,0,0-58.44,13.613c-1.1.931-2.436,2.567-3.483,3.308-.765.541-1.711-.18-1.2-1.051a26.693,26.693,0,0,1,2.269-2.257A66.321,66.321,0,0,1,66.069,89.817a22.22,22.22,0,0,1,3.353,1.174.884.884,0,0,1,.117,1.243" transform="translate(0 -73.863)" fill="#65bd9c"/>
    <path id="Path_64504" data-name="Path 64504" d="M124.287,411.939a.946.946,0,0,1,.648.047c15.845,7.67,33.267,7.916,49.73,2.044a41.168,41.168,0,0,1,4.111-1.633c.646-.092.938.125,1.061.776a1.124,1.124,0,0,1-.267.48c-.484.529-5.116,2.155-6.112,2.49a64.686,64.686,0,0,1-45.2-.986c-.636-.255-4.133-1.685-4.3-2.034-.186-.38-.124-1.05.335-1.184" transform="translate(-105.163 -349.738)" fill="#65bd9c"/>
    <path id="Path_64505" data-name="Path 64505" d="M530.4,11.748l-5.463-6.08L531.51,0l5.648,6.543-6.331,5.147Z" transform="translate(-445.711 0)" fill="#65bd9c"/>
    <path id="Path_64506" data-name="Path 64506" d="M488.266,126.926a1.382,1.382,0,0,1,.8.043c2.02.558,6.219,3.05,8.19,4.185,3.838,2.208,9.645,5.786,12.853,8.728.463.424.959.731.517,1.413a.785.785,0,0,1-1.178.154,96.257,96.257,0,0,0-21.291-13.119c-.47-.286-.441-1.24.105-1.4" transform="translate(-414.207 -107.733)" fill="#65bd9c"/>
    <path id="Path_64507" data-name="Path 64507" d="M511.45,52.909a50.14,50.14,0,0,1-5.795,1.071c-.924.074-1.555.049-1.551-1.093.007-1.716.928-4.061.925-5.87a1.026,1.026,0,0,1,1.705-.566,42.475,42.475,0,0,0,3.167,3.321c.244.265,1.6,1.7,1.655,1.816a1.615,1.615,0,0,1-.107,1.321" transform="translate(-428.025 -39.213)" fill="#65bd9c"/>
    <path id="Path_64508" data-name="Path 64508" d="M182.85,199.533c3.9-.06,3.2,6.192-.76,5.055a2.582,2.582,0,0,1,.76-5.055" transform="translate(-153.044 -169.419)" fill="#65bd9c"/>
    <path id="Path_64509" data-name="Path 64509" d="M436.009,105.35,445.743,96l1.132.984-9.061,8.754c-.409.183-1.305-.377-1.8-.384" transform="translate(-370.207 -81.509)" fill="#65bd9c"/>
    <path id="Path_64510" data-name="Path 64510" d="M379,154.033c-.034-.277.321-.13.486-.109.314.04.676.144,1,.213.594.128,5.609,1.34,5.608,1.633l-1.883,1.884A16.567,16.567,0,0,0,379,154.033" transform="translate(-321.799 -130.645)" fill="#65bd9c"/>
    <path id="Path_64511" data-name="Path 64511" d="M254.845,232.737a3.207,3.207,0,0,0,2.436-5.385,8.089,8.089,0,0,1,5.038-2.611c9.569-.89,13.4,11.489,5.343,16.058a8.591,8.591,0,0,1-12.817-8.063" transform="translate(-216.361 -190.785)" fill="#65bd9c"/>
    <path id="Path_64512" data-name="Path 64512" d="M246.338,246.079a1.642,1.642,0,1,1,.376,3.262c-2.042.19-2.332-3.027-.376-3.262" transform="translate(-208.039 -208.929)" fill="#65bd9c"/>
  </g>
</svg>
